<svg xmlns="http://www.w3.org/2000/svg" viewBox="0 0 64 64">
  <defs>
    <linearGradient id="sky" x1="0" y1="0" x2="0" y2="1">
      <stop offset="0" stop-color="#7ec8f3"/>
      <stop offset="1" stop-color="#cfeafc"/>
    </linearGradient>
  </defs>
  <rect width="64" height="64" rx="14" fill="url(#sky)"/>
  <circle cx="24" cy="24" r="10" fill="#f9b53b"/>
  <g stroke="#f9b53b" stroke-width="2.4" stroke-linecap="round">
    <line x1="24" y1="6" x2="24" y2="11"/>
    <line x1="24" y1="37" x2="24" y2="42"/>
    <line x1="6" y1="24" x2="11" y2="24"/>
    <line x1="37" y1="24" x2="42" y2="24"/>
    <line x1="11" y1="11" x2="14.5" y2="14.5"/>
    <line x1="33.5" y1="33.5" x2="37" y2="37"/>
    <line x1="11" y1="37" x2="14.5" y2="33.5"/>
    <line x1="33.5" y1="14.5" x2="37" y2="11"/>
  </g>
  <path d="M22 46a9 9 0 0 1 17-3 7 7 0 0 1 1 14H24a7.5 7.5 0 0 1-2-11z" fill="#ffffff"/>
</svg>
